<svg xmlns="http://www.w3.org/2000/svg" width="32.119" height="29.425" viewBox="0 0 32.119 29.425">
  <g id="Raggruppa_113" data-name="Raggruppa 113" transform="translate(0.5 0.5)">
    <path id="Tracciato_261" data-name="Tracciato 261" d="M33.479,10.268a.684.684,0,0,0-.524-.262H8.657L8.2,7.157A.666.666,0,0,0,7.543,6.6H3.155a.655.655,0,1,0,0,1.31H6.986L9.279,21.828h0a.415.415,0,0,0,.033.2L10.1,26.74a.666.666,0,0,0,.655.557h18.6a.655.655,0,0,0,0-1.31H11.309l-.589-3.5H30.008a.631.631,0,0,0,.622-.491l2.947-11.2A.526.526,0,0,0,33.479,10.268Zm-4,10.938H10.49l-1.637-9.89H32.1Z" transform="translate(-2.5 -6.6)" stroke="#000" stroke-width="1"/>
    <path id="Tracciato_262" data-name="Tracciato 262" d="M33.058,77.846a3.029,3.029,0,1,0-3.013,3.046A3.061,3.061,0,0,0,33.058,77.846Zm-4.748,0a1.736,1.736,0,1,1,1.736,1.736A1.747,1.747,0,0,1,28.31,77.846Z" transform="translate(-18.977 -52.466)" stroke="#000" stroke-width="1"/>
    <path id="Tracciato_263" data-name="Tracciato 263" d="M67.291,77.846a3.046,3.046,0,1,0-3.046,3.046A3.061,3.061,0,0,0,67.291,77.846Zm-4.748,0a1.736,1.736,0,1,1,1.736,1.736A1.747,1.747,0,0,1,62.543,77.846Z" transform="translate(-41.977 -52.466)" stroke="#000" stroke-width="1"/>
  </g>
</svg>
